<mxfile host="app.diagrams.net" modified="2023-05-25T08:00:14.289Z" agent="Mozilla/5.0 (Windows NT 10.0; Win64; x64) AppleWebKit/537.36 (KHTML, like Gecko) Chrome/113.0.0.0 Safari/537.36" etag="uoTj2HehKVqOYtDFfi6t" version="21.3.2" type="github">
  <diagram name="第 1 页" id="_EZv8xjl4AYSn8gJ00T0">
    <mxGraphModel dx="3092" dy="670" grid="0" gridSize="10" guides="1" tooltips="1" connect="1" arrows="1" fold="1" page="1" pageScale="1" pageWidth="827" pageHeight="1169" math="0" shadow="0">
      <root>
        <mxCell id="0" />
        <mxCell id="1" parent="0" />
        <mxCell id="KKEPbOqUAjUVmHg55h-t-1" style="edgeStyle=orthogonalEdgeStyle;rounded=0;orthogonalLoop=1;jettySize=auto;html=1;exitX=1;exitY=0.5;exitDx=0;exitDy=0;exitPerimeter=0;entryX=0;entryY=0.5;entryDx=0;entryDy=0;entryPerimeter=0;" edge="1" parent="1" source="KKEPbOqUAjUVmHg55h-t-2" target="KKEPbOqUAjUVmHg55h-t-5">
          <mxGeometry relative="1" as="geometry" />
        </mxCell>
        <mxCell id="KKEPbOqUAjUVmHg55h-t-2" value="用户端" style="strokeWidth=2;html=1;shape=mxgraph.flowchart.terminator;whiteSpace=wrap;fontSize=18;" vertex="1" parent="1">
          <mxGeometry x="-1605" y="751" width="100" height="60" as="geometry" />
        </mxCell>
        <mxCell id="KKEPbOqUAjUVmHg55h-t-3" value="否" style="edgeStyle=orthogonalEdgeStyle;rounded=0;orthogonalLoop=1;jettySize=auto;html=1;exitX=0.5;exitY=0;exitDx=0;exitDy=0;exitPerimeter=0;entryX=0.5;entryY=1;entryDx=0;entryDy=0;entryPerimeter=0;fontSize=18;" edge="1" parent="1" source="KKEPbOqUAjUVmHg55h-t-5" target="KKEPbOqUAjUVmHg55h-t-8">
          <mxGeometry relative="1" as="geometry">
            <Array as="points">
              <mxPoint x="-1364" y="706" />
              <mxPoint x="-1364" y="706" />
            </Array>
          </mxGeometry>
        </mxCell>
        <mxCell id="KKEPbOqUAjUVmHg55h-t-4" value="是" style="edgeStyle=orthogonalEdgeStyle;rounded=0;orthogonalLoop=1;jettySize=auto;html=1;exitX=1;exitY=0.5;exitDx=0;exitDy=0;exitPerimeter=0;entryX=0;entryY=0.5;entryDx=0;entryDy=0;fontSize=18;" edge="1" parent="1" source="KKEPbOqUAjUVmHg55h-t-5" target="KKEPbOqUAjUVmHg55h-t-16">
          <mxGeometry relative="1" as="geometry" />
        </mxCell>
        <mxCell id="KKEPbOqUAjUVmHg55h-t-5" value="&lt;font style=&quot;font-size: 18px;&quot;&gt;已登录&lt;/font&gt;" style="strokeWidth=2;html=1;shape=mxgraph.flowchart.decision;whiteSpace=wrap;" vertex="1" parent="1">
          <mxGeometry x="-1428" y="741" width="127" height="78" as="geometry" />
        </mxCell>
        <mxCell id="KKEPbOqUAjUVmHg55h-t-6" value="否" style="edgeStyle=orthogonalEdgeStyle;rounded=0;orthogonalLoop=1;jettySize=auto;html=1;exitX=0.5;exitY=0;exitDx=0;exitDy=0;exitPerimeter=0;entryX=0.5;entryY=1;entryDx=0;entryDy=0;fontSize=18;" edge="1" parent="1" source="KKEPbOqUAjUVmHg55h-t-8" target="KKEPbOqUAjUVmHg55h-t-10">
          <mxGeometry relative="1" as="geometry" />
        </mxCell>
        <mxCell id="KKEPbOqUAjUVmHg55h-t-7" value="是" style="edgeStyle=orthogonalEdgeStyle;rounded=0;orthogonalLoop=1;jettySize=auto;html=1;exitX=1;exitY=0.5;exitDx=0;exitDy=0;exitPerimeter=0;entryX=0;entryY=0.5;entryDx=0;entryDy=0;fontSize=18;" edge="1" parent="1" source="KKEPbOqUAjUVmHg55h-t-8" target="KKEPbOqUAjUVmHg55h-t-12">
          <mxGeometry relative="1" as="geometry" />
        </mxCell>
        <mxCell id="KKEPbOqUAjUVmHg55h-t-8" value="&lt;font style=&quot;font-size: 18px;&quot;&gt;有账号&lt;/font&gt;" style="strokeWidth=2;html=1;shape=mxgraph.flowchart.decision;whiteSpace=wrap;" vertex="1" parent="1">
          <mxGeometry x="-1428" y="602" width="127" height="78" as="geometry" />
        </mxCell>
        <mxCell id="KKEPbOqUAjUVmHg55h-t-9" style="edgeStyle=orthogonalEdgeStyle;rounded=0;orthogonalLoop=1;jettySize=auto;html=1;exitX=1;exitY=0.5;exitDx=0;exitDy=0;" edge="1" parent="1" source="KKEPbOqUAjUVmHg55h-t-10" target="KKEPbOqUAjUVmHg55h-t-12">
          <mxGeometry relative="1" as="geometry" />
        </mxCell>
        <mxCell id="KKEPbOqUAjUVmHg55h-t-10" value="注册" style="rounded=0;whiteSpace=wrap;html=1;fontSize=18;" vertex="1" parent="1">
          <mxGeometry x="-1424.5" y="481" width="120" height="60" as="geometry" />
        </mxCell>
        <mxCell id="KKEPbOqUAjUVmHg55h-t-11" style="edgeStyle=orthogonalEdgeStyle;rounded=0;orthogonalLoop=1;jettySize=auto;html=1;exitX=0.5;exitY=1;exitDx=0;exitDy=0;" edge="1" parent="1" source="KKEPbOqUAjUVmHg55h-t-12" target="KKEPbOqUAjUVmHg55h-t-16">
          <mxGeometry relative="1" as="geometry" />
        </mxCell>
        <mxCell id="KKEPbOqUAjUVmHg55h-t-12" value="登录" style="rounded=0;whiteSpace=wrap;html=1;fontSize=18;" vertex="1" parent="1">
          <mxGeometry x="-1235" y="611" width="120" height="60" as="geometry" />
        </mxCell>
        <mxCell id="KKEPbOqUAjUVmHg55h-t-13" style="edgeStyle=orthogonalEdgeStyle;rounded=0;orthogonalLoop=1;jettySize=auto;html=1;exitX=1;exitY=0.5;exitDx=0;exitDy=0;entryX=0;entryY=0.5;entryDx=0;entryDy=0;" edge="1" parent="1" source="KKEPbOqUAjUVmHg55h-t-16" target="KKEPbOqUAjUVmHg55h-t-19">
          <mxGeometry relative="1" as="geometry">
            <Array as="points">
              <mxPoint x="-1069" y="780" />
              <mxPoint x="-1069" y="641" />
            </Array>
          </mxGeometry>
        </mxCell>
        <mxCell id="KKEPbOqUAjUVmHg55h-t-14" style="edgeStyle=orthogonalEdgeStyle;rounded=0;orthogonalLoop=1;jettySize=auto;html=1;exitX=1;exitY=0.5;exitDx=0;exitDy=0;" edge="1" parent="1" source="KKEPbOqUAjUVmHg55h-t-16" target="KKEPbOqUAjUVmHg55h-t-18">
          <mxGeometry relative="1" as="geometry">
            <Array as="points">
              <mxPoint x="-1067" y="780" />
              <mxPoint x="-1067" y="780" />
            </Array>
          </mxGeometry>
        </mxCell>
        <mxCell id="KKEPbOqUAjUVmHg55h-t-15" style="edgeStyle=orthogonalEdgeStyle;rounded=0;orthogonalLoop=1;jettySize=auto;html=1;exitX=1;exitY=0.5;exitDx=0;exitDy=0;entryX=0;entryY=0.5;entryDx=0;entryDy=0;" edge="1" parent="1" source="KKEPbOqUAjUVmHg55h-t-16" target="KKEPbOqUAjUVmHg55h-t-17">
          <mxGeometry relative="1" as="geometry" />
        </mxCell>
        <mxCell id="KKEPbOqUAjUVmHg55h-t-16" value="用户面板" style="rounded=0;whiteSpace=wrap;html=1;fontSize=18;" vertex="1" parent="1">
          <mxGeometry x="-1235" y="750" width="120" height="60" as="geometry" />
        </mxCell>
        <mxCell id="KKEPbOqUAjUVmHg55h-t-17" value="个人中心" style="rounded=0;whiteSpace=wrap;html=1;fontSize=18;" vertex="1" parent="1">
          <mxGeometry x="-1023" y="884" width="120" height="60" as="geometry" />
        </mxCell>
        <mxCell id="KKEPbOqUAjUVmHg55h-t-18" value="订单操作" style="rounded=0;whiteSpace=wrap;html=1;fontSize=18;" vertex="1" parent="1">
          <mxGeometry x="-1023" y="750" width="120" height="60" as="geometry" />
        </mxCell>
        <mxCell id="KKEPbOqUAjUVmHg55h-t-19" value="菜品选购" style="rounded=0;whiteSpace=wrap;html=1;fontSize=18;" vertex="1" parent="1">
          <mxGeometry x="-1023" y="611" width="120" height="60" as="geometry" />
        </mxCell>
      </root>
    </mxGraphModel>
  </diagram>
</mxfile>
